<?xml version="1.0" standalone="no"?>
<!DOCTYPE svg PUBLIC "-//W3C//DTD SVG 20010904//EN"
 "http://www.w3.org/TR/2001/REC-SVG-20010904/DTD/svg10.dtd">
<svg version="1.0" xmlns="http://www.w3.org/2000/svg"
 width="512.000000pt" height="512.000000pt" viewBox="0 0 512.000000 512.000000"
 preserveAspectRatio="xMidYMid meet">
<metadata>
Created by potrace 1.16, written by Peter Selinger 2001-2019
</metadata>
<g transform="translate(0.000000,512.000000) scale(0.100000,-0.100000)"
fill="#000000" stroke="none">
<path d="M0 2560 l0 -2560 2560 0 2560 0 0 2560 0 2560 -2560 0 -2560 0 0
-2560z m2655 2259 c48 -66 95 -128 105 -137 30 -29 88 -155 100 -220 16 -80 8
-171 -21 -246 -26 -66 -139 -196 -171 -196 -16 0 -17 -3 -7 -22 7 -13 11 -23
10 -23 -1 0 2 -11 7 -25 78 -199 81 -210 63 -210 -11 0 -33 59 -25 71 3 5 0 9
-6 9 -7 0 -9 7 -6 16 3 8 2 12 -4 9 -9 -6 -14 10 -13 42 1 7 -3 10 -8 7 -8 -5
-13 12 -12 43 1 7 -3 11 -7 8 -5 -3 -11 8 -15 25 -5 21 -13 30 -26 30 -14 0
-19 7 -19 25 0 16 6 25 16 25 11 0 14 5 9 18 -4 9 -13 53 -21 96 -8 44 -16 81
-18 83 -2 2 -6 -19 -10 -47 -4 -27 -10 -50 -15 -50 -5 0 -14 -20 -21 -46 -10
-34 -10 -48 -1 -57 14 -14 15 -227 1 -427 -10 -141 -2 -240 20 -240 4 0 11
-11 14 -25 10 -40 24 -29 42 33 15 50 16 68 5 152 -22 163 -25 240 -11 240 10
0 11 -14 7 -55 -4 -37 -2 -53 5 -49 7 4 9 -8 6 -35 -2 -22 1 -41 6 -41 5 0 6
-18 3 -40 -3 -23 -1 -38 4 -34 5 3 9 -22 9 -55 0 -36 -4 -61 -11 -61 -5 0 -7
-5 -4 -11 8 -12 -33 -119 -46 -119 -15 0 -57 84 -68 138 -13 64 -14 122 -2
122 5 0 6 38 3 85 -2 47 -1 85 4 85 5 0 7 67 5 152 -2 84 -5 147 -8 141 -3 -7
-11 -13 -20 -13 -10 0 -12 -6 -8 -21 4 -12 3 -19 -1 -16 -5 3 -10 -9 -10 -26
-1 -16 -8 -35 -16 -41 -8 -6 -13 -17 -11 -23 3 -7 0 -13 -6 -13 -6 0 -7 -7 -4
-17 4 -11 3 -14 -5 -9 -8 5 -10 2 -6 -8 3 -9 1 -16 -6 -16 -6 0 -9 -3 -7 -7 7
-11 -28 -144 -36 -137 -3 3 -3 -5 0 -18 6 -23 6 -23 -15 -4 -12 10 -19 23 -15
29 3 6 1 7 -6 3 -6 -4 -14 0 -17 8 -3 9 -10 14 -14 11 -5 -3 -14 0 -22 7 -7 7
-29 14 -48 16 -19 1 -36 7 -38 12 -3 8 -60 3 -70 -6 -2 -1 5 -11 16 -22 11
-11 23 -18 26 -15 10 10 107 -99 102 -114 -3 -8 -2 -11 3 -8 12 7 24 -31 15
-46 -4 -7 -3 -9 4 -5 16 9 26 -13 13 -28 -9 -10 -8 -15 4 -20 17 -6 21 -46 5
-46 -5 0 -10 -4 -10 -10 0 -5 6 -10 13 -10 10 0 45 -104 50 -152 1 -9 4 -15 8
-12 8 4 35 -57 31 -69 -1 -5 1 -6 6 -3 10 6 58 -54 54 -67 -1 -5 2 -6 7 -3 5
4 12 2 15 -3 4 -5 24 -23 45 -40 l39 -31 60 62 c33 34 75 85 94 114 19 31 41
53 51 54 17 0 17 -2 1 -32 -21 -40 -55 -78 -71 -78 -6 0 -15 -4 -18 -10 -4 -6
1 -7 12 -3 26 9 -36 -57 -64 -67 -12 -5 -23 -19 -25 -32 -2 -18 -10 -24 -38
-26 -31 -2 -42 4 -95 58 -33 33 -57 60 -53 60 3 0 -7 14 -23 31 -16 17 -26 35
-23 40 3 5 1 9 -5 9 -6 0 -13 11 -17 25 -3 14 -10 25 -14 25 -12 0 -28 54 -46
153 -8 51 -25 113 -36 139 -21 49 -90 120 -146 150 -21 11 -32 25 -32 39 0 21
3 22 80 16 60 -4 93 -12 139 -35 l59 -30 7 36 c6 30 73 223 100 285 5 13 2 17
-13 17 -32 0 -148 133 -172 198 -27 70 -40 219 -19 207 11 -6 11 -5 3 4 -22
24 32 209 76 263 11 12 23 28 28 33 4 6 9 15 10 20 2 6 28 54 58 108 50 86 59
97 84 97 24 0 40 -16 115 -121z m-1140 -515 c196 -45 270 -83 298 -153 14 -35
43 -258 35 -267 -10 -9 -229 21 -276 38 -103 38 -159 124 -165 250 -1 31 -5
54 -9 51 -5 -2 -8 19 -8 46 0 49 1 51 28 51 15 0 59 -7 97 -16z m415 2 c129
-40 160 -51 210 -73 74 -34 134 -84 167 -141 16 -26 29 -49 29 -52 9 -33 18
-50 25 -50 5 0 9 -29 9 -65 0 -37 -4 -65 -10 -65 -5 0 -10 -9 -10 -20 0 -11
-5 -20 -11 -20 -5 0 -8 -4 -4 -10 3 -5 -9 -17 -26 -26 -49 -25 -178 -15 -244
18 -27 14 -59 35 -69 47 -11 12 -24 21 -30 21 -16 0 -52 57 -80 125 -23 58
-46 196 -46 283 0 37 3 42 23 42 12 0 42 -6 67 -14z m1340 -103 c0 -60 -6
-133 -13 -164 -17 -70 -55 -140 -85 -155 -16 -8 -20 -13 -10 -17 8 -3 3 -8
-14 -15 -14 -6 -29 -16 -33 -22 -3 -6 -30 -22 -58 -37 -69 -35 -181 -44 -221
-18 -15 10 -24 20 -22 23 3 2 -1 11 -9 19 -11 10 -15 38 -15 94 0 96 29 169
95 234 44 45 155 103 245 129 30 9 62 21 70 26 8 5 27 10 43 10 l27 0 0 -107z
m424 98 c8 -13 -11 -208 -24 -255 -7 -21 -30 -57 -54 -81 -54 -53 -124 -76
-255 -83 l-94 -5 6 39 c6 39 21 124 32 176 15 74 49 116 127 158 78 42 248 75
262 51z m526 -217 c0 -54 -20 -125 -34 -117 -7 4 -7 2 1 -7 9 -10 6 -27 -12
-78 -13 -36 -27 -68 -32 -71 -4 -3 -17 -23 -28 -43 -11 -21 -23 -38 -28 -38
-4 0 -6 -4 -2 -9 8 -14 -105 -132 -142 -148 -49 -20 -40 -23 25 -7 89 21 201
28 277 16 39 -6 108 -16 155 -22 152 -20 150 -19 150 -41 0 -11 -17 -36 -38
-57 -21 -20 -64 -68 -97 -105 -76 -88 -193 -176 -281 -212 -80 -33 -197 -39
-299 -17 -33 8 -94 12 -136 10 -59 -2 -76 0 -76 11 0 11 13 12 63 7 34 -4 65
-3 68 2 4 7 51 9 51 2 0 -1 50 -4 110 -7 95 -4 119 -2 173 16 59 20 178 88
169 97 -5 5 -90 -38 -98 -50 -4 -5 -12 -5 -18 -2 -6 4 -11 2 -11 -3 0 -6 -9
-11 -20 -11 -11 0 -20 5 -20 10 0 6 5 10 11 10 13 0 69 52 69 64 0 5 -9 1 -20
-9 -20 -18 -21 -18 -14 0 5 12 4 16 -3 12 -12 -7 -36 16 -27 26 14 14 -44 -8
-80 -31 -32 -20 -43 -22 -62 -13 -17 8 -25 7 -31 -2 -8 -12 -29 -18 -75 -21
-14 0 -24 -4 -21 -8 2 -5 -12 -8 -32 -8 -23 0 -34 4 -30 10 4 7 -2 9 -19 4
-15 -3 -26 -2 -26 4 0 5 -11 7 -25 4 -14 -2 -25 0 -25 4 0 12 -193 11 -202 -1
-4 -5 -10 -7 -13 -3 -11 11 36 67 52 61 10 -4 11 -9 2 -19 -10 -12 2 -14 69
-14 44 0 111 -7 150 -16 70 -16 72 -16 116 7 25 12 45 23 43 24 -1 2 -35 -2
-75 -7 -86 -12 -122 -5 -122 21 0 40 35 97 97 159 36 36 57 62 47 57 -11 -4
-52 -10 -91 -13 -70 -4 -73 -6 -73 -30 0 -14 -2 -23 -5 -20 -7 7 -91 -78 -113
-114 -14 -24 -52 -40 -52 -22 0 27 108 142 122 129 2 -2 4 5 5 15 2 19 1 19
-38 0 l-39 -20 0 30 c0 20 5 30 15 30 8 0 15 5 15 10 0 6 -4 10 -8 10 -4 0 -7
59 -6 131 1 91 -1 129 -9 126 -6 -2 -28 -43 -48 -92 -21 -49 -42 -91 -48 -93
-5 -2 -7 -10 -4 -19 4 -11 2 -14 -5 -9 -8 5 -10 2 -6 -8 3 -9 1 -16 -6 -16 -6
0 -9 -4 -5 -9 6 -11 -15 -61 -26 -61 -5 0 -5 -7 -2 -17 5 -12 3 -14 -7 -8 -9
5 -11 4 -6 -3 12 -19 -41 -92 -67 -92 l-22 1 21 18 c19 15 83 126 90 156 15
57 104 287 117 300 9 9 17 21 17 26 0 15 81 99 90 94 4 -3 10 1 13 9 8 21 173
86 251 98 39 6 114 21 166 34 135 32 140 32 140 -12z m-2895 -93 c88 -21 165
-54 165 -71 0 -6 4 -9 8 -8 14 5 92 -70 79 -76 -7 -2 -4 -5 5 -5 20 -1 42 -41
89 -161 18 -47 43 -104 55 -127 17 -33 19 -43 9 -43 -18 0 -38 37 -29 52 5 7
3 8 -6 3 -10 -6 -12 -4 -7 8 3 10 2 17 -4 17 -6 0 -7 5 -4 10 3 6 1 10 -5 10
-7 0 -10 7 -6 15 3 8 1 15 -5 15 -6 0 -7 5 -4 10 3 6 2 10 -2 10 -12 0 -34 61
-26 73 3 6 1 7 -5 3 -7 -4 -17 6 -25 26 -8 18 -23 41 -34 50 -19 18 -20 17
-18 -20 1 -20 5 -69 10 -109 8 -80 1 -96 -46 -101 -19 -2 -39 7 -65 30 l-39
33 28 -37 c29 -39 35 -73 15 -81 -7 -2 11 -6 40 -8 51 -4 52 -4 52 24 0 18 5
27 16 27 12 0 15 -7 12 -30 -3 -16 -1 -30 4 -30 4 0 8 -9 8 -20 0 -13 -5 -18
-15 -14 -8 4 -13 9 -11 13 2 3 -6 6 -19 6 -16 0 -23 -6 -22 -16 1 -9 6 -15 12
-12 16 6 98 -85 89 -99 -4 -6 -3 -8 3 -5 6 4 23 -12 37 -34 l27 -41 -80 4
c-45 2 -81 -1 -81 -6 0 -4 -9 -6 -20 -3 -10 3 -21 0 -22 -5 -2 -6 -18 -11 -36
-12 -18 0 -32 -5 -32 -9 0 -5 -9 -5 -20 -2 -11 4 -20 2 -20 -4 0 -6 -11 -11
-25 -11 -14 0 -25 4 -25 9 0 5 -9 7 -20 4 -18 -5 -227 52 -243 67 -4 4 62 5
148 2 96 -3 155 -1 155 5 0 5 -13 8 -30 5 -26 -4 -30 -1 -29 19 0 13 3 18 6
12 8 -20 20 -15 19 7 0 12 -8 25 -16 30 -8 5 -11 12 -7 16 8 9 37 -14 37 -30
0 -6 10 -12 21 -12 19 0 16 5 -17 33 -21 19 -44 31 -52 28 -7 -2 -10 -1 -7 5
7 12 -85 40 -157 47 -61 6 -119 -3 -288 -44 -121 -29 -130 -31 -149 -32 -19
-1 15 -38 105 -112 189 -154 328 -195 522 -152 42 10 96 17 120 17 23 0 42 4
42 8 0 5 23 8 51 8 31 0 48 -4 44 -10 -3 -5 -25 -10 -48 -11 -23 0 -67 -8 -97
-17 l-55 -18 90 0 c83 -1 125 -8 198 -36 39 -15 35 -43 -18 -129 -55 -90 -60
-97 -108 -132 -91 -69 -206 -89 -386 -68 -124 15 -131 17 -131 45 0 43 224
281 271 287 5 1 13 2 18 3 5 0 13 5 18 10 4 5 -7 5 -27 0 -19 -4 -73 -7 -120
-6 -139 2 -205 29 -395 159 -17 11 -44 35 -58 53 -15 17 -27 28 -27 24 0 -4
-13 5 -30 21 -31 29 -40 73 -17 79 6 2 84 21 172 42 142 35 174 39 280 38 107
0 126 -3 175 -26 30 -14 79 -47 108 -74 44 -43 52 -55 52 -87 l0 -37 -87 -1
c-88 0 -88 0 -49 -15 41 -15 53 -13 155 17 35 10 87 19 117 19 30 0 54 4 54 8
0 4 -16 26 -36 48 -20 21 -45 50 -56 64 -11 14 -22 24 -24 22 -9 -6 -54 31
-54 45 0 13 -11 14 -63 9 -72 -8 -121 0 -110 18 5 8 3 8 -8 -1 -22 -18 -146
38 -200 90 -53 51 -135 147 -131 153 1 2 -7 13 -18 24 -21 21 -75 120 -72 133
1 4 -2 7 -7 7 -12 0 -34 57 -28 73 4 11 48 14 206 16 172 1 214 -1 286 -18z
m601 -170 c94 -41 127 -98 140 -235 l6 -73 -61 -6 c-166 -18 -261 49 -355 250
-43 92 -39 96 102 91 94 -3 127 -8 168 -27z m1564 2 c0 -15 -25 -77 -55 -139
-47 -96 -61 -117 -104 -148 -64 -47 -120 -66 -196 -66 -86 0 -91 8 -72 112 19
100 30 131 57 158 11 11 19 23 19 27 -1 4 24 20 55 37 44 23 75 31 143 36 159
13 153 13 153 -17z m-166 -504 c-30 -31 -84 -65 -84 -52 0 4 -6 -2 -14 -13 -8
-10 -18 -16 -21 -12 -4 4 -14 0 -22 -8 -9 -8 -22 -13 -29 -10 -8 3 -14 2 -14
-3 0 -13 -57 -34 -71 -25 -8 5 -9 3 -4 -6 6 -10 4 -12 -8 -7 -10 4 -17 2 -17
-4 0 -6 -7 -9 -15 -5 -8 3 -15 2 -15 -3 0 -13 -79 -43 -92 -35 -7 4 -8 2 -4
-4 4 -7 3 -12 -1 -12 -5 0 -44 -20 -87 -45 -44 -25 -81 -45 -83 -45 -12 0 0
32 15 37 9 4 44 22 77 41 33 19 123 59 199 89 171 67 224 93 255 127 14 14 34
26 45 26 18 0 17 -3 -10 -31z m-982 -171 c46 -24 88 -54 94 -66 15 -31 26 -41
19 -17 -4 11 16 -4 44 -34 29 -31 51 -64 51 -77 0 -18 -40 -98 -97 -191 -7
-13 -21 -23 -30 -23 -21 0 -123 105 -124 128 0 10 -3 12 -6 5 -3 -9 -20 0 -51
26 -111 91 -429 217 -599 238 -46 5 -53 8 -33 14 38 11 72 10 65 -1 -4 -6 6
-7 26 -3 23 4 30 3 25 -5 -5 -8 2 -10 25 -5 25 5 35 2 46 -12 7 -11 13 -13 13
-6 0 7 5 9 13 4 6 -4 19 -9 28 -10 30 -5 69 -22 69 -31 0 -5 11 -7 25 -4 16 3
27 -1 31 -11 3 -9 12 -13 19 -11 18 7 88 -24 80 -36 -3 -5 0 -7 8 -4 29 11
204 -96 192 -116 -3 -5 0 -7 7 -5 8 3 40 -22 77 -61 34 -36 63 -65 65 -63 16
22 106 180 106 187 0 5 -9 17 -20 27 -11 10 -20 24 -20 32 0 7 -3 12 -8 11 -4
-2 -28 13 -52 33 -25 20 -72 52 -105 70 -33 18 -62 35 -65 38 -3 4 -9 6 -15 7
-29 1 -64 17 -58 27 3 6 1 7 -5 3 -16 -9 -112 24 -112 39 0 17 171 -43 272
-97z m1227 -21 c-24 -4 -62 -12 -83 -18 -22 -6 -46 -12 -55 -14 -9 -2 -54 -18
-101 -35 -47 -17 -89 -32 -95 -34 -35 -10 -217 -97 -275 -132 -25 -14 -61 -41
-81 -60 -19 -19 -38 -31 -42 -28 -4 4 -7 1 -7 -7 0 -8 -22 -38 -49 -67 -51
-53 -110 -163 -131 -240 -6 -23 -15 -40 -20 -37 -6 4 -10 1 -10 -4 0 -14 -36
-14 -61 0 -16 8 -27 4 -60 -22 -26 -21 -44 -28 -50 -22 -6 6 4 19 31 37 45 30
46 33 24 64 -8 12 -12 22 -9 22 3 0 -22 25 -55 55 -56 49 -145 95 -185 95 -8
0 -15 4 -15 9 0 4 -11 6 -25 3 -14 -2 -25 0 -25 4 0 5 -52 9 -115 9 -63 0
-115 -3 -115 -7 0 -5 -8 -8 -18 -8 -39 0 -144 -44 -203 -85 -35 -24 -67 -41
-71 -39 -5 3 -7 0 -6 -8 2 -7 -2 -12 -8 -11 -6 1 -11 -3 -11 -10 0 -7 -14 -33
-32 -59 -50 -74 -73 -151 -75 -245 0 -46 -5 -83 -10 -83 -6 0 -1 -7 10 -15 15
-12 16 -16 6 -23 -11 -7 -10 -11 4 -16 16 -6 16 -8 4 -16 -12 -8 -12 -10 4
-10 12 0 16 -5 13 -14 -3 -8 -2 -16 2 -18 4 -2 21 -28 39 -59 17 -30 58 -85
91 -121 33 -36 57 -69 53 -73 -4 -3 0 -5 8 -3 8 2 14 -3 12 -10 -1 -8 2 -10 8
-7 15 9 51 -24 43 -39 -3 -6 -3 -8 2 -4 11 10 126 -92 118 -105 -3 -5 -1 -7 5
-3 11 7 217 -176 272 -243 33 -39 60 -53 60 -30 0 6 7 8 17 5 10 -4 14 -4 10
0 -9 9 53 55 65 48 5 -3 7 0 6 8 -2 7 5 12 14 12 10 -1 16 2 15 6 -3 14 163
131 175 124 6 -4 8 -3 5 3 -9 14 19 37 34 27 7 -4 9 -3 6 3 -3 5 16 26 42 46
48 37 68 46 56 27 -3 -5 0 -7 8 -4 16 6 41 -21 33 -35 -3 -5 0 -12 6 -14 10
-4 9 -8 -2 -16 -8 -6 -11 -11 -6 -11 5 0 3 -7 -4 -15 -7 -8 -17 -12 -23 -8 -5
3 -7 1 -4 -4 9 -14 -40 -46 -55 -37 -7 4 -8 3 -4 -4 8 -14 -30 -35 -47 -26 -6
4 -9 4 -5 -1 8 -8 -217 -147 -239 -148 -7 0 -13 -4 -13 -8 0 -9 -51 -42 -67
-42 -7 0 -10 -3 -8 -7 5 -8 -50 -50 -66 -50 -7 0 -10 -3 -6 -6 3 -3 -10 -26
-29 -51 -19 -24 -34 -49 -34 -54 0 -5 -8 -9 -17 -9 -11 0 -14 -3 -7 -8 7 -5 5
-23 -6 -60 -9 -29 -19 -49 -23 -46 -4 4 -7 -7 -7 -24 0 -18 5 -32 11 -32 8 0
10 -12 6 -35 -3 -20 -2 -33 3 -30 5 3 20 -20 34 -50 14 -30 48 -79 75 -108 28
-30 48 -56 45 -59 -3 -3 0 -9 7 -14 8 -4 10 -3 5 4 -11 17 1 15 34 -8 17 -11
43 -29 60 -40 16 -11 34 -20 40 -20 5 0 10 -6 10 -14 0 -8 8 -13 18 -12 12 1
16 -5 14 -19 -2 -15 -1 -17 6 -6 10 14 36 6 27 -9 -3 -5 0 -12 6 -16 8 -4 9
-3 5 4 -12 20 5 14 41 -14 41 -31 95 -103 87 -115 -3 -5 0 -9 6 -9 7 0 9 -7 6
-16 -4 -10 -2 -13 6 -8 8 5 9 -1 4 -20 -4 -18 -3 -25 4 -21 6 4 10 -9 10 -35
0 -25 -4 -39 -10 -35 -13 8 -13 -1 0 -26 9 -15 13 -17 24 -7 8 7 12 16 9 21
-2 4 0 7 6 7 6 0 7 7 4 17 -4 9 -2 14 3 11 5 -4 10 4 10 15 4 61 18 127 27
127 18 0 0 -114 -30 -185 -25 -59 -34 -70 -56 -73 -31 -4 -33 6 -16 78 13 57
-3 126 -41 179 -16 21 -27 41 -24 43 2 3 -6 13 -18 24 l-23 19 19 -22 c29 -34
10 -28 -37 12 l-42 36 -13 -73 c-15 -80 -32 -112 -32 -59 0 18 4 30 10 26 6
-4 7 6 4 25 -4 18 -2 30 4 30 27 0 -6 43 -55 70 -34 19 -53 36 -50 44 4 11 0
11 -19 2 -24 -11 -32 -26 -15 -26 5 0 7 -9 4 -20 -7 -28 -23 -25 -23 4 0 35
10 56 27 56 8 0 -7 17 -34 39 -78 62 -132 126 -160 188 -22 48 -27 72 -27 148
0 109 25 172 100 251 43 46 154 134 168 134 3 0 37 20 76 45 38 25 70 42 70
40 0 -3 10 3 22 15 12 11 26 20 31 20 5 0 36 16 68 36 32 19 62 35 66 36 4 0
18 15 30 31 16 22 20 34 12 43 -7 8 -6 14 3 17 8 3 5 6 -6 6 -11 1 -31 -9 -44
-21 -20 -18 -24 -19 -19 -5 10 26 -2 20 -12 -7 -5 -13 -48 -49 -95 -80 -47
-32 -90 -64 -97 -72 -10 -12 -14 -12 -20 -2 -7 10 -9 9 -9 -3 0 -9 -9 -24 -20
-34 -11 -10 -20 -14 -20 -9 0 5 -7 -2 -16 -14 -8 -12 -20 -22 -25 -22 -6 0
-25 -11 -43 -25 -18 -14 -41 -25 -52 -25 -20 1 -124 90 -105 90 6 0 11 5 11
11 0 5 -5 7 -11 4 -12 -8 -179 151 -170 161 3 4 0 4 -6 0 -18 -10 -308 254
-291 265 10 7 9 9 -3 9 -8 0 -26 11 -39 25 -13 14 -20 25 -17 25 7 0 -1 11
-44 59 -12 13 -33 51 -47 85 -23 55 -26 75 -26 191 -1 117 2 136 23 185 14 30
34 66 45 79 48 56 98 101 107 95 5 -3 8 0 7 8 -2 7 3 12 10 10 6 -1 12 2 12 7
0 6 23 21 50 35 28 14 50 23 50 19 0 -3 6 -1 13 5 52 44 297 56 427 22 115
-30 120 -32 120 -43 0 -6 3 -7 7 -4 10 11 43 -24 36 -37 -4 -6 0 -5 9 2 8 7
18 29 22 50 8 55 73 185 87 176 8 -4 9 -3 5 5 -8 13 27 56 119 143 41 40 61
54 67 45 9 -14 -91 -108 -107 -99 -5 3 -7 2 -3 -3 6 -7 -52 -89 -75 -106 -5
-3 -8 -8 -6 -10 4 -8 -42 -89 -51 -89 -5 0 -7 -7 -4 -15 4 -8 1 -15 -5 -15 -6
0 -8 -7 -5 -15 4 -8 2 -15 -4 -15 -6 0 -8 -9 -5 -20 3 -11 1 -20 -5 -20 -5 0
-12 -9 -15 -21 -3 -13 -1 -19 6 -16 12 4 53 -51 49 -65 -1 -5 3 -8 10 -8 7 0
26 -14 43 -30 29 -28 35 -30 58 -19 15 7 23 17 20 25 -3 8 0 14 7 14 6 0 9 4
5 10 -8 13 5 61 16 54 5 -3 6 2 3 10 -3 9 -1 16 5 16 6 0 8 7 5 15 -3 8 6 26
23 41 15 15 22 24 14 19 -10 -5 -8 3 5 26 27 49 172 191 219 214 22 11 45 25
52 31 14 13 168 81 266 118 42 16 67 21 67 14 0 -7 5 -5 13 4 16 21 47 31 47
15 0 -7 5 -4 10 5 9 15 48 29 90 33 9 0 21 4 28 9 7 4 19 2 27 -4 10 -8 15 -9
15 -2 0 15 33 20 49 8 11 -8 4 -13 -30 -19z m309 -43 c74 -29 102 -49 103 -73
0 -11 2 -12 6 -3 7 19 53 -25 54 -52 0 -13 3 -16 6 -8 4 10 17 3 43 -23 21
-21 49 -42 62 -49 14 -7 24 -22 26 -38 3 -29 13 -25 -133 -63 -147 -38 -321
-29 -400 22 -53 34 -96 74 -89 84 3 5 -1 6 -9 4 -7 -3 -22 3 -32 15 -10 11
-15 20 -11 20 4 0 -9 14 -29 31 -35 31 -46 71 -23 85 6 4 54 22 107 40 127 44
221 46 319 8z m-563 -463 c105 -34 129 -48 184 -107 84 -90 96 -125 96 -274
-1 -106 -4 -132 -23 -173 -12 -26 -26 -53 -32 -60 -5 -6 -30 -40 -55 -75 -44
-61 -69 -81 -82 -68 -10 10 38 56 51 49 6 -3 8 -3 4 2 -4 4 6 27 23 52 66 95
107 228 94 305 -5 29 -3 43 6 49 11 7 10 9 -3 9 -10 0 -18 7 -18 15 0 20 -36
91 -66 131 -13 17 -20 35 -16 39 4 5 2 5 -4 2 -7 -4 -18 0 -25 9 -7 9 -36 27
-63 41 -28 14 -53 28 -56 32 -3 3 -16 7 -30 9 -14 1 -26 6 -28 10 -1 4 -18 6
-37 4 -19 -2 -35 0 -35 4 0 5 -25 9 -55 9 -30 0 -55 -4 -55 -9 0 -4 -13 -6
-30 -4 -16 3 -30 0 -30 -5 0 -5 -9 -7 -20 -4 -10 3 -20 2 -22 -2 -5 -14 -120
-61 -131 -54 -6 3 -7 1 -3 -5 4 -7 3 -12 -3 -12 -5 0 -40 -23 -76 -50 -37 -28
-71 -47 -77 -44 -6 4 -8 3 -5 -3 9 -15 -69 -87 -84 -78 -7 5 -10 4 -5 -3 7
-12 -177 -196 -191 -190 -4 2 -7 7 -5 11 1 5 -2 6 -7 2 -6 -3 -36 15 -68 41
-32 26 -98 74 -148 107 -49 32 -92 62 -95 65 -13 17 -76 9 -65 -8 8 -13 -6
-41 -18 -33 -6 3 -7 1 -3 -5 4 -6 0 -25 -9 -41 -8 -17 -15 -37 -15 -45 0 -9
33 -39 74 -67 48 -34 72 -57 69 -66 -7 -18 -33 2 -34 26 0 10 -3 11 -6 4 -6
-17 -63 25 -63 46 0 12 -2 13 -9 3 -6 -10 -10 -10 -21 3 -7 8 -19 15 -28 15
-12 0 -14 9 -9 46 2 26 10 49 15 53 6 4 22 31 36 61 14 30 26 48 27 40 0 -10
2 -11 6 -2 2 6 11 12 19 12 21 0 174 -93 237 -144 30 -25 59 -46 63 -46 4 0
19 -11 33 -24 l26 -25 33 30 c18 16 30 29 27 29 -4 0 -3 5 1 11 4 8 9 7 15 -2
6 -10 9 -8 9 7 0 14 24 42 65 79 36 31 62 48 59 38 -4 -10 4 -2 17 17 61 87
206 175 359 217 101 28 219 26 315 -6z m-1195 -120 c0 -6 16 -7 35 -4 22 4 35
2 35 -5 0 -6 7 -9 15 -6 8 4 15 1 15 -5 0 -6 7 -8 15 -5 9 4 15 0 15 -9 0 -14
-4 -14 -32 -3 -58 24 -148 29 -222 12 -37 -9 -73 -13 -78 -10 -6 4 -8 2 -5 -3
4 -6 -4 -18 -18 -27 -14 -9 -25 -13 -25 -9 0 4 -11 -9 -26 -30 -14 -21 -29
-35 -34 -32 -6 4 -7 -1 -3 -11 3 -10 2 -15 -3 -12 -10 7 -15 -23 -17 -107 -1
-77 24 -127 106 -209 33 -33 59 -68 58 -76 -2 -13 -1 -13 8 0 8 12 15 10 42
-15 17 -17 36 -41 41 -55 6 -15 12 -20 15 -12 3 8 21 -2 54 -29 27 -22 47 -45
43 -50 -3 -5 2 -6 11 -3 18 7 65 -31 65 -52 0 -7 4 -16 10 -19 6 -4 7 1 3 12
-3 10 13 0 38 -24 29 -27 47 -38 54 -31 6 5 35 24 65 42 50 29 55 35 58 72 1
21 6 46 9 54 3 8 7 19 7 25 1 5 12 15 26 22 14 7 19 13 11 13 -20 0 28 35 68
48 19 7 51 12 71 12 46 0 164 -59 168 -84 3 -12 -1 -17 -10 -13 -7 2 -12 9
-11 15 1 5 -5 9 -15 8 -9 0 -16 4 -15 11 2 7 -4 10 -12 7 -8 -4 -17 1 -21 9
-3 9 -12 13 -20 10 -7 -3 -16 1 -19 9 -5 12 -16 13 -53 7 -26 -4 -48 -6 -50
-4 -7 6 -102 -89 -102 -102 0 -8 -3 -12 -7 -10 -5 3 -6 -17 -5 -43 3 -41 1
-50 -17 -60 -12 -6 -21 -8 -21 -6 0 3 -11 -6 -25 -20 -15 -15 -32 -23 -41 -20
-8 3 -13 2 -10 -3 3 -4 -6 -14 -19 -21 -27 -15 -22 -17 -112 59 -29 24 -49 49
-46 54 3 6 1 7 -5 3 -14 -8 -61 23 -62 41 0 6 -5 15 -12 19 -7 5 -8 3 -3 -7 7
-11 6 -12 -6 -4 -59 44 -108 88 -104 95 3 4 -3 14 -13 21 -15 13 -16 12 -3 -3
20 -26 -2 -22 -27 5 -12 13 -19 27 -15 32 5 4 2 5 -5 0 -9 -5 -30 9 -63 41
-46 46 -64 74 -36 58 7 -4 9 -3 4 2 -5 5 -14 9 -20 9 -20 0 -58 83 -64 139 -6
58 8 114 39 159 11 15 24 24 30 21 6 -4 8 -2 4 4 -18 30 138 111 189 98 14 -4
25 -2 25 4 0 5 18 10 40 10 22 0 40 -4 40 -9z m1080 -80 c0 -5 9 -7 20 -4 12
3 22 -1 26 -11 3 -9 10 -14 14 -11 10 6 67 -41 81 -67 8 -16 8 -23 -2 -29 -11
-7 -10 -9 4 -9 24 0 23 -81 -3 -138 -22 -48 -128 -165 -142 -156 -4 3 -7 0 -6
-6 5 -18 -72 -77 -80 -63 -5 9 -12 5 -21 -10 -13 -20 -13 -21 2 -8 10 7 17 11
17 8 0 -3 -18 -20 -41 -38 -33 -26 -43 -29 -50 -18 -6 10 -9 8 -9 -10 0 -16
-4 -21 -15 -17 -19 7 -20 -24 -2 -43 10 -10 8 -12 -8 -9 -11 2 -21 9 -21 16
-1 6 -2 17 -3 22 0 6 -8 10 -16 10 -9 0 -46 23 -83 52 -37 28 -82 57 -99 65
-25 10 -33 20 -33 38 0 20 7 26 38 34 59 16 130 67 149 106 15 30 15 40 4 71
-7 19 -10 39 -6 42 13 14 42 -37 43 -77 2 -32 -4 -48 -30 -76 -35 -41 -148
-103 -148 -83 0 7 -5 5 -11 -5 -6 -10 -9 -20 -7 -21 1 -1 33 -21 70 -45 41
-26 65 -48 61 -55 -3 -6 -3 -8 2 -4 10 9 47 -10 41 -21 -3 -4 1 -8 9 -8 8 0
11 5 8 10 -4 6 1 8 11 4 9 -4 15 -3 11 2 -3 5 10 18 28 30 18 11 43 31 56 45
13 14 29 23 35 19 6 -3 8 -3 4 1 -3 4 5 24 18 44 14 19 27 47 30 61 4 14 13
31 22 38 12 10 13 15 2 28 -8 10 -9 15 -1 15 6 0 11 5 11 10 0 6 -6 10 -14 10
-7 0 -16 12 -19 28 -10 43 -44 91 -82 113 -40 24 -45 39 -14 39 13 0 41 -20
70 -50 37 -38 50 -61 58 -102 15 -69 1 -164 -28 -188 -3 -3 -15 -16 -26 -30
l-20 -25 25 20 c84 65 179 175 188 215 20 94 9 135 -50 185 -18 16 -32 31 -31
35 1 4 -31 6 -70 6 -58 -1 -83 -7 -130 -30 -53 -25 -56 -29 -40 -41 17 -13 16
-14 -11 -25 -38 -14 -87 -50 -82 -59 3 -4 1 -13 -3 -20 -7 -10 -13 -8 -29 9
l-20 22 -7 -22 c-6 -18 -9 -20 -16 -9 -7 11 -9 10 -9 -4 0 -9 -12 -27 -27 -40
-15 -12 -58 -51 -95 -86 -38 -35 -68 -58 -69 -50 0 11 -2 11 -6 -1 -7 -20 -44
-60 -55 -60 -5 0 -50 -31 -102 -70 -51 -38 -97 -70 -103 -70 -6 0 -16 -7 -23
-15 -11 -13 -15 -13 -21 -3 -7 11 -9 10 -9 0 0 -8 -10 -22 -22 -33 -28 -23
-68 -25 -68 -3 0 8 5 12 11 9 6 -4 42 14 80 39 38 26 75 44 81 40 6 -4 8 -3 5
3 -9 15 19 36 35 27 7 -4 10 -4 6 1 -10 11 110 97 124 89 6 -4 8 -3 5 3 -4 6
15 28 41 49 26 22 92 81 147 132 54 50 108 92 120 93 11 0 14 3 8 6 -23 9 83
85 166 119 55 23 151 32 151 15z m-172 -854 c-6 -92 -32 -134 -131 -207 -39
-30 -76 -58 -82 -63 -16 -15 16 3 53 30 17 13 32 19 32 13 0 -6 5 -8 10 -5 6
3 10 4 10 1 0 -12 -141 -96 -151 -91 -5 4 -9 -3 -9 -15 0 -13 -4 -19 -12 -14
-7 4 -8 3 -4 -4 4 -6 12 -9 19 -6 16 6 60 -53 51 -68 -5 -7 -3 -8 6 -3 10 6
12 4 7 -8 -3 -10 -2 -17 4 -17 6 0 8 -9 4 -20 -4 -11 -2 -20 4 -20 6 0 11 -9
11 -21 0 -12 -4 -17 -11 -13 -7 4 -9 0 -5 -14 13 -40 -66 -154 -95 -137 -7 5
-10 4 -6 -2 7 -11 -69 -66 -90 -66 -7 0 -13 -4 -13 -9 0 -5 -11 -14 -25 -20
-14 -6 -25 -15 -25 -19 0 -4 26 -33 58 -64 31 -31 51 -54 43 -49 -9 4 -12 3
-8 -3 11 -18 60 -2 120 39 32 21 63 36 69 32 6 -4 8 -3 4 4 -8 13 33 43 48 35
6 -3 8 -3 4 2 -9 9 81 111 94 107 5 -1 7 2 4 7 -7 11 4 42 13 37 3 -2 7 8 8
22 0 15 5 28 10 29 5 2 7 20 5 41 -3 29 -1 34 8 22 9 -12 11 -10 7 13 -2 15 0
30 4 33 13 8 11 -43 -5 -107 -16 -72 -60 -147 -92 -159 -27 -11 -33 -22 -6
-14 9 3 1 -8 -18 -24 -19 -17 -38 -28 -42 -26 -5 3 -8 1 -8 -5 0 -15 -119 -96
-163 -112 -32 -11 -41 -11 -60 0 -19 11 -18 9 5 -15 50 -53 91 -184 58 -184
-5 0 -10 12 -10 28 0 44 -44 124 -91 167 -24 22 -43 43 -41 48 1 5 -1 6 -6 3
-12 -7 -160 112 -200 160 -18 21 -30 45 -27 51 2 7 -1 13 -6 13 -6 0 -9 9 -6
20 3 10 0 21 -5 22 -7 3 -8 17 -3 38 8 35 78 110 133 143 37 21 50 7 20 -19
-20 -18 -21 -18 -15 -1 4 11 3 16 -3 12 -6 -3 -10 -12 -10 -19 0 -7 -9 -21
-19 -30 -15 -13 -20 -14 -24 -4 -3 7 -6 4 -6 -7 -1 -11 -14 -35 -30 -53 -17
-17 -26 -32 -22 -32 5 0 9 -6 8 -12 -1 -37 5 -59 28 -92 15 -21 20 -36 12 -36
-7 0 0 -7 16 -14 28 -15 126 -93 139 -111 4 -5 8 -6 8 -1 0 14 51 -36 60 -59
7 -17 9 -17 9 -2 1 9 6 17 12 17 5 0 7 5 3 11 -4 8 -9 8 -13 1 -8 -14 -101 74
-101 96 0 10 22 29 53 46 36 21 47 31 35 34 -13 2 -18 13 -18 35 -1 50 -33
109 -78 142 -26 19 -42 38 -42 51 0 25 44 58 66 50 8 -3 13 -2 10 3 -6 9 63
55 71 47 8 -7 -37 -47 -46 -41 -5 2 -12 -2 -15 -11 -3 -8 -10 -12 -16 -9 -5 3
-10 1 -10 -5 0 -6 -4 -8 -10 -5 -5 3 -10 1 -10 -5 0 -6 -4 -9 -9 -6 -4 3 -6
-6 -3 -19 2 -14 9 -28 15 -32 6 -4 7 -1 2 6 -5 10 -3 10 12 0 23 -14 59 -66
55 -80 -1 -5 3 -9 9 -9 6 0 8 -7 5 -16 -3 -8 -2 -12 4 -9 6 4 10 -7 10 -24 0
-34 11 -39 30 -16 7 8 17 12 24 8 6 -3 8 -3 4 2 -4 4 -1 20 7 36 24 46 19 137
-10 188 -14 24 -23 46 -21 48 9 9 27 -9 47 -49 30 -59 25 -178 -11 -228 l-24
-34 26 19 c15 11 28 23 28 28 0 4 6 7 14 7 18 0 56 61 67 108 10 46 -21 124
-62 153 -19 13 -29 29 -29 46 0 21 -2 24 -15 13 -12 -10 -15 -10 -15 2 0 19
107 91 122 82 7 -4 8 -3 4 4 -4 6 4 16 16 23 13 6 42 27 64 45 23 18 45 30 49
26 5 -4 5 -1 1 5 -8 14 33 75 45 68 4 -3 5 4 2 15 -3 11 -1 20 5 20 6 0 8 16
5 40 -5 39 0 70 13 70 4 0 5 -33 2 -73z m-727 -1131 c7 4 9 -5 7 -22 -2 -17 3
-34 12 -41 10 -9 11 -12 3 -13 -10 0 -9 -5 2 -17 9 -10 35 -43 58 -73 42 -53
105 -105 115 -95 3 3 -2 13 -11 23 -10 10 -14 22 -10 25 3 4 1 7 -5 7 -15 0
-35 66 -26 92 6 19 9 13 21 -32 8 -34 25 -67 43 -85 37 -38 39 -65 6 -65 -36
0 -56 10 -56 29 0 11 -2 13 -8 4 -6 -9 -25 3 -65 43 -63 62 -92 125 -100 214
-2 30 -2 43 0 27 2 -15 9 -25 14 -21z"/>
<path d="M1190 3818 c0 -18 -20 -24 -33 -11 -13 13 -76 6 -102 -11 -21 -14
-29 -15 -41 -5 -11 9 -14 7 -14 -15 0 -20 20 -47 78 -106 95 -97 164 -133 262
-137 36 -2 59 0 53 3 -7 3 -13 17 -13 31 l0 26 20 -23 c11 -13 20 -27 20 -32
0 -4 5 -8 10 -8 15 0 -58 114 -106 165 -23 25 -39 45 -36 45 3 0 -7 14 -23 30
-24 25 -31 28 -37 16 -5 -9 -15 -13 -24 -9 -11 4 -12 8 -4 13 9 6 9 13 1 26
-9 17 -10 17 -11 2z"/>
<path d="M1442 3083 c-26 -3 -40 -8 -36 -15 4 -6 -1 -8 -15 -3 -32 10 -119
-34 -171 -87 -78 -78 -162 -179 -156 -186 4 -3 84 -6 179 -7 161 0 175 2 219
24 79 39 182 160 163 192 -4 5 -1 8 6 7 6 -2 13 2 16 9 3 8 -3 11 -17 8 -14
-3 -20 0 -17 8 3 7 11 11 18 9 11 -3 10 0 -1 12 -9 9 -38 18 -65 21 -28 3 -57
7 -65 8 -8 2 -34 2 -58 0z"/>
<path d="M3540 3020 c0 -5 8 -14 18 -19 16 -10 16 -10 -1 -11 -11 0 -15 -4
-11 -12 4 -7 3 -8 -5 -4 -6 4 -9 12 -6 17 4 5 2 9 -4 9 -5 0 -13 -5 -16 -10
-8 -13 65 -96 82 -94 7 1 11 -2 8 -6 -9 -15 69 -70 119 -85 70 -21 205 -19
306 5 121 29 118 27 74 59 -22 15 -50 39 -64 53 -14 13 -44 41 -67 62 -37 33
-40 34 -30 12 7 -14 17 -26 23 -26 7 0 14 -11 16 -25 3 -15 1 -25 -6 -25 -7 0
-27 -11 -45 -24 l-33 -25 -57 20 c-31 11 -65 24 -76 29 -11 4 -50 20 -87 36
-55 22 -66 30 -57 41 9 11 8 12 -4 7 -9 -3 -26 1 -39 10 -26 18 -38 20 -38 6z"/>
</g>
</svg>
